<svg viewBox="-5 0 140 105" width="81" height="80" fill="none" xmlns="http://www.w3.org/2000/svg">
  <circle cx="65.5" cy="52.5" r="52.5" fill="url(#paint0_linear)"/>
  <path d="M3.80797 75L3.80797 26.6562H19.3802C23.6524 26.6562 27.4929 27.6302 30.9017 29.5781C34.3106 31.5039 36.9668 34.2376 38.8705 37.7793C40.7962 41.2988 41.7702 45.25 41.7923 49.6328V51.8574C41.7923 56.2845 40.8516 60.2578 38.9701 63.7773C37.1107 67.2747 34.4766 70.0195 31.0677 72.0117C27.681 73.9818 23.8959 74.9779 19.7123 75H3.80797ZM15.4623 35.6543V66.0352H19.513C22.8555 66.0352 25.4232 64.8509 27.2162 62.4824C29.0091 60.0918 29.9056 56.5501 29.9056 51.8574V49.7656C29.9056 45.0951 29.0091 41.5755 27.2162 39.207C25.4232 36.8385 22.8112 35.6543 19.3802 35.6543H15.4623ZM79.1113 54.5137H60.7832V66.0352H82.4316V75H49.1289V26.6562H82.498V35.6543H60.7832V45.8477H79.1113V54.5137ZM107.299 61.8516L116.928 26.6562H129.944L113.674 75H100.924L84.7877 26.6562H97.7038L107.299 61.8516Z" fill="black"/>
  <defs>
    <linearGradient id="paint0_linear" x1="65.5" y1="0" x2="65.5" y2="105" gradientUnits="userSpaceOnUse">
      <stop stop-color="#D271E3"/>
      <stop offset="0.25" stop-color="#D8AAEF"/>
      <stop offset="0.75" stop-color="#ABC6FF"/>
      <stop offset="1" stop-color="#82AAFF"/>
    </linearGradient>
  </defs>
</svg>
